# xmcd
#
# Track frame offsets:
#	150
#	25949
#	41629
#	60872
#	74564
#	90185
#	105692
#	119947
#	136927
#	155615
#	186972
#	208673
#	230820
#	247886
#	280355
#	293205
#	311634
#
# Disc length: 4411 seconds
#
# Revision: 1
# Processed by: cddbd v1.5.2PL0 Copyright (c) Steve Scherf et al.
# Submitted via: EZCDAudioConverter 2.1.7.1
#
DISCID=fe113911
DTITLE=V/A - Purple Snow 1/2
DYEAR=2013
DGENRE=
TTITLE0=94 East - If You See Me
TTITLE1=Aura - Taste Of Love
TTITLE2=Herman Jones - I Love You
TTITLE3=Orville Shannon - Oh Lover
TTITLE4=Mind and Matter - I'm Under Your Spell
TTITLE5=Haze - Waiting For The Moment
TTITLE6=Prophets Of Peace - Get It On
TTITLE7=Cohesion - Expense
TTITLE8=Mind and Matter - Sunshine Lady
TTITLE9=Lewis Connection - Higher
TTITLE10=Flyte Tyme - It's The Things That You Do
TTITLE11=Herman Jones - Ladie
TTITLE12=Michael A. Dixon and J.O.Y. - You're All I Need
TTITLE13=Music, Love and Funk - Stone Lover
TTITLE14=Cohesion - Cohesion
TTITLE15=Haze - I Do Love My Lady
TTITLE16=Lewis Connection - Got To Be Something Here
EXTD=
EXTT0=
EXTT1=
EXTT2=
EXTT3=
EXTT4=
EXTT5=
EXTT6=
EXTT7=
EXTT8=
EXTT9=
EXTT10=
EXTT11=
EXTT12=
EXTT13=
EXTT14=
EXTT15=
EXTT16=
PLAYORDER=
